# xmcd
#
# Track frame offsets: 
#        150
#        27402
#        52734
#        74370
#        91515
#        120777
#        143440
#        162526
#        187762
#        209596
#        232977
#        253283
#
# Disc length: 3663 seconds
#
# Revision: 0
# Processed by: cddbd v1.5.2PL0 Copyright (c) Steve Scherf et al.
# Submitted via: ExactAudioCopy v0.99pb4
#
DISCID=950e4d0c
DTITLE=Batista Lima - Farol
DYEAR=2007
DGENRE=Católica
TTITLE0=O Farol
TTITLE1=Clame a Jesus
TTITLE2=O Amor
TTITLE3=Sou Filho do Rei
TTITLE4=Eu te ensino a caminhar
TTITLE5=Espírito de Deus
TTITLE6=Nasci para Vencer
TTITLE7=Mãe da Vitória
TTITLE8=Quero ser Feliz com Jesus
TTITLE9=Já Parou pra Pensar
TTITLE10=Como Eu te Amo
TTITLE11=Cante, Louve
EXTD=
EXTT0=
EXTT1=
EXTT2=
EXTT3=
EXTT4=
EXTT5=
EXTT6=
EXTT7=
EXTT8=
EXTT9=
EXTT10=
EXTT11=
PLAYORDER=
